<svg xmlns="http://www.w3.org/2000/svg" viewBox="0 0 174.7 145.2">
  <rect width="174.7" height="145.2" rx="16" fill="#012939"/>
  <path fill="white" d="M53.8,125.8h51.7c16.9,0,30.9-12.4,33.4-28.6,0-.5-.4-1-.9-1h-8.6c-.4,0-.8.3-.8.7-2.2,10.7-11.6,18.7-23,18.7h-40.9c-1,0-1.7-1-1.3-1.9l2.4-6.4c.2-.5.7-.9,1.3-.9h36.5c6.4,0,11.9-3.7,14.6-9,.3-.6-.2-1.3-.8-1.3H53.3c-.5,0-.9.4-.9.9v27.4c0,.8.6,1.4,1.4,1.4Z"/>
  <path fill="white" d="M119.9,48.2v-27.4c0-.8-.6-1.4-1.4-1.4h-51.7c-16.9,0-30.9,12.4-33.4,28.6,0,.5.4,1,.9,1h8.6c.4,0,.8-.3.8-.7,2.2-10.7,11.6-18.7,23-18.7h40.9c1,0,1.7,1,1.3,1.9l-2.4,6.4c-.2.5-.7.9-1.3.9h-36.5c-6.4,0-11.9,3.7-14.6,9-.3.6.2,1.3.8,1.3h64c.5,0,.9-.4.9-.9Z"/>
  <path fill="white" d="M157.5,96.1h-8.5c-.4,0-.8.3-.9.8-2.4,21.4-20.6,38.1-42.7,38.1h-60.9c-.8,0-1.4-.6-1.4-1.4v-36.6c0-.5-.4-.9-.9-.9h-8.5c-.5,0-.9.4-.9.9v27.4c0,1.2-1.5,1.9-2.4,1l-6.4-6.4c-.3-.3-.4-.6-.4-1v-21c0-.5-.4-.9-.9-.9h-8.5c-.5,0-.9.4-.9.9v24.1c0,1.1.4,2.2,1.2,3l20,20c.8.8,1.9,1.2,3,1.2h67.8c27.7,0,50.4-21.1,52.9-48.1,0-.5-.4-1-.9-1Z"/>
  <path fill="white" d="M14.7,49.1h8.5c.4,0,.8-.3.9-.8,2.4-21.4,20.6-38.1,42.7-38.1h60.9c.8,0,1.4.6,1.4,1.4v36.6c0,.5.4.9.9.9h8.5c.5,0,.9-.4.9-.9v-27.4c0-1.2,1.5-1.9,2.4-1l6.4,6.4c.1.3.3.6.4,1v21c0,.5.4.9.9.9h8.5c.5,0,.9-.4.9-.9v-24.1c0-1.1-.4-2.2-1.2-3L137.5,1.2c-.8-.8-1.9-1.2-3-1.2h-67.8C39.1,0,16.4,21.1,13.8,48.1c0,.5.4,1,.9,1Z"/>
</svg>
